<?xml version="1.0" encoding="UTF-8" standalone="no"?>
<!-- Uploaded to: SVG Repo, www.svgrepo.com, Generator: SVG Repo Mixer Tools -->

<svg
   xmlns:dc="http://purl.org/dc/elements/1.1/"
   xmlns:cc="http://creativecommons.org/ns#"
   xmlns:rdf="http://www.w3.org/1999/02/22-rdf-syntax-ns#"
   xmlns:svg="http://www.w3.org/2000/svg"
   xmlns="http://www.w3.org/2000/svg"
   xmlns:sodipodi="http://sodipodi.sourceforge.net/DTD/sodipodi-0.dtd"
   xmlns:inkscape="http://www.inkscape.org/namespaces/inkscape"
   height="53.380005"
   width="49.999996"
   version="1.1"
   id="Capa_1"
   viewBox="0 0 24.698123 26.367721"
   xml:space="preserve"
   sodipodi:docname="barrel.svg"
   style="fill:#FFAF00"
   inkscape:version="0.92.4 (5da689c313, 2019-01-14)"><metadata
   id="metadata9"><rdf:RDF><cc:Work
       rdf:about=""><dc:format>image/svg+xml</dc:format><dc:type
         rdf:resource="http://purl.org/dc/dcmitype/StillImage" /><dc:title></dc:title></cc:Work></rdf:RDF></metadata><defs
   id="defs7" /><sodipodi:namedview
   pagecolor="#ffffff"
   bordercolor="#666666"
   borderopacity="1"
   objecttolerance="10"
   gridtolerance="10"
   guidetolerance="10"
   inkscape:pageopacity="0"
   inkscape:pageshadow="2"
   inkscape:window-width="1920"
   inkscape:window-height="1017"
   id="namedview5"
   showgrid="false"
   fit-margin-top="0"
   fit-margin-left="0"
   fit-margin-right="0"
   fit-margin-bottom="0"
   inkscape:zoom="6.675088"
   inkscape:cx="23.384228"
   inkscape:cy="46.576403"
   inkscape:window-x="-8"
   inkscape:window-y="-8"
   inkscape:window-maximized="1"
   inkscape:current-layer="Capa_1" />
<path
   d="m 23.466713,20.3612 c 0.806172,-2.22394 1.23141,-4.68876 1.23141,-7.17767 0,-2.48844 -0.425238,-4.953 -1.231343,-7.17694 0.159806,-0.006 0.307869,-0.0871 0.397414,-0.22046 0.09295,-0.13852 0.110763,-0.31421 0.04751,-0.46855 l -1.00281,-2.44774 c -0.077,-0.18796 -0.25996,-0.31073 -0.463071,-0.31073 h -0.65871 C 21.224422,1.67046 20.592603,0.86102 19.904601,0.15193 19.810321,0.05483 19.680805,0 19.54542,0 H 5.153437 C 5.017985,0 4.888338,0.0549 4.794122,0.15214 4.106855,0.86115 3.475103,1.67053 2.911877,2.55911 H 2.252434 c -0.203111,0 -0.386071,0.12277 -0.463072,0.31073 L 0.786619,5.31752 C 0.723429,5.47185 0.741249,5.64754 0.834129,5.78606 0.923669,5.91944 1.071603,6.00065 1.23141,6.00652 0.425238,8.23046 0,10.69502 0,13.18353 c 0,2.48891 0.425238,4.95373 1.23141,7.17767 -0.15974,0.006 -0.307736,0.0871 -0.397281,0.22046 -0.09295,0.13852 -0.110763,0.31414 -0.04751,0.46854 l 1.002677,2.44761 c 0.077,0.18797 0.25996,0.31074 0.463071,0.31074 H 2.91181 c 0.563226,0.88858 1.194978,1.69795 1.882246,2.40704 0.09428,0.0973 0.223862,0.15213 0.359314,0.15213 h 14.391982 c 0.135318,0 0.264898,-0.0548 0.35918,-0.15193 0.688002,-0.70909 1.319821,-1.51853 1.882513,-2.40724 h 0.658709 c 0.203111,0 0.386071,-0.12277 0.463071,-0.31074 l 1.002677,-2.44761 c 0.06325,-0.15433 0.04544,-0.33002 -0.04751,-0.46854 -0.08941,-0.13338 -0.237474,-0.21465 -0.397281,-0.22046 z m -1.067733,-0.001 h -1.801976 c 0.592385,-2.22108 0.904925,-4.68637 0.904925,-7.17654 0,-2.48978 -0.31254,-4.95487 -0.904925,-7.17581 h 1.801976 c 0.849409,2.20199 1.298201,4.67469 1.298201,7.17581 0,2.50158 -0.448792,4.97455 -1.298201,7.17654 z m -17.26089,0 C 4.522218,18.15707 4.197067,15.68511 4.197067,13.18366 c 0,-2.50106 0.325151,-4.97275 0.941023,-7.17581 H 8.703407 C 8.497894,7.86674 8.376454,9.86122 8.342158,11.95105 7.447042,12.2391 6.79734,13.07957 6.79734,14.06923 c 0,1.00888 0.675191,1.8625 1.597263,2.1342 0.06039,1.4458 0.16361,2.84022 0.308804,4.15683 H 5.13809 Z m 3.884129,-5.06697 c -0.674924,0 -1.224004,-0.54908 -1.224004,-1.224 0,-0.67492 0.54908,-1.224 1.224004,-1.224 0.674923,0 1.224003,0.54908 1.224003,1.224 0,0.67492 -0.549013,1.224 -1.224003,1.224 z M 9.710887,20.3602 C 9.565093,19.064 9.460402,17.6896 9.398681,16.26161 c 1.04805,-0.17942 1.848483,-1.09395 1.848483,-2.19238 0,-1.11738 -0.827991,-2.04459 -1.902597,-2.20126 0.0367,-2.06373 0.159473,-4.03059 0.36572,-5.86012 h 5.277547 c 0.247683,2.20473 0.378131,4.67482 0.378131,7.17581 0,2.50145 -0.130448,4.97174 -0.378131,7.17654 z M 15.994514,6.00778 h 3.56545 c 0.615872,2.20313 0.941023,4.67482 0.941023,7.17581 0,2.50145 -0.325151,4.97342 -0.941023,7.17654 h -3.56545 c 0.243747,-2.2132 0.372326,-4.68036 0.372326,-7.17654 0,-2.49571 -0.128579,-4.96267 -0.372326,-7.17581 z M 20.586462,2.5593 H 19.360056 C 19.102765,2.00782 18.824722,1.48723 18.529063,1.00101 h 0.802235 c 0.445723,0.47501 0.865223,0.99714 1.255164,1.55829 z m -2.338378,0 H 15.483467 C 15.376374,2.00602 15.260939,1.48496 15.138232,1.00101 h 2.20366 c 0.322282,0.47675 0.625213,0.99874 0.906192,1.55829 z M 14.104462,1.00101 c 0.127445,0.47875 0.247616,1.00014 0.35918,1.55829 h -4.22923 c 0.111564,-0.55815 0.231736,-1.07954 0.35918,-1.55829 z m -4.54464,0 C 9.437115,1.48496 9.321681,2.00602 9.214587,2.5593 H 6.450304 C 6.732284,1.99821 7.035215,1.47622 7.356696,1.00101 Z m -4.192065,0 H 6.169458 C 5.8744,1.48603 5.596357,2.00662 5.338265,2.5593 H 4.11286 C 4.503001,1.99815 4.922435,1.47602 5.367757,1.00101 Z M 2.588261,3.56018 H 22.11006 l 0.592652,1.4468 H 1.995543 Z m -0.28912,2.4476 h 1.801976 c -0.592385,2.22101 -0.904858,4.6861 -0.904858,7.17581 0,2.49018 0.31254,4.95553 0.904858,7.17654 H 2.299141 C 1.449732,18.15814 1.00094,15.68518 1.00094,13.18359 1.000873,10.68247 1.449732,8.20978 2.299141,6.00778 Z m 1.813653,17.8009 h 1.225404 c 0.258159,0.55268 0.536202,1.07327 0.83126,1.5583 H 5.367757 C 4.922435,24.89196 4.503001,24.36977 4.112794,23.80868 Z m 2.33751,0 h 2.764283 c 0.107094,0.55328 0.222528,1.07434 0.345235,1.5583 H 7.356696 C 7.035282,24.89183 6.732284,24.36984 6.450304,23.80868 Z m 4.143355,1.5583 c -0.127445,-0.47876 -0.247616,-1.00015 -0.35918,-1.5583 h 4.22923 c -0.111564,0.55815 -0.231736,1.07954 -0.35918,1.5583 z m 4.54464,0 c 0.122707,-0.48396 0.238141,-1.00502 0.345235,-1.5583 h 2.764617 c -0.281046,0.55956 -0.583977,1.08154 -0.906192,1.5583 z m 4.192932,0 h -0.802235 c 0.295726,-0.48623 0.573702,-1.00682 0.83106,-1.5583 h 1.226406 c -0.389941,0.56109 -0.809441,1.08328 -1.255231,1.5583 z M 22.11006,22.8078 H 2.588194 L 1.995543,21.36107 h 20.707169 z"
   id="path2"
   inkscape:connector-curvature="0"
   style="stroke-width:0.066725" />
</svg>