<?xml version="1.0" encoding="UTF-8" standalone="no"?>
<svg
   xmlns:dc="http://purl.org/dc/elements/1.1/"
   xmlns:cc="http://creativecommons.org/ns#"
   xmlns:rdf="http://www.w3.org/1999/02/22-rdf-syntax-ns#"
   xmlns:svg="http://www.w3.org/2000/svg"
   xmlns="http://www.w3.org/2000/svg"
   xmlns:sodipodi="http://sodipodi.sourceforge.net/DTD/sodipodi-0.dtd"
   xmlns:inkscape="http://www.inkscape.org/namespaces/inkscape"
   viewBox="0 0 28 31.797285"
   version="1.1"
   id="svg4"
   sodipodi:docname="css3.svg"
   width="28"
   height="31.797285"
   inkscape:version="0.92.4 (5da689c313, 2019-01-14)">
  <metadata
     id="metadata10">
    <rdf:RDF>
      <cc:Work
         rdf:about="">
        <dc:format>image/svg+xml</dc:format>
        <dc:type
           rdf:resource="http://purl.org/dc/dcmitype/StillImage" />
        <dc:title></dc:title>
      </cc:Work>
    </rdf:RDF>
  </metadata>
  <defs
     id="defs8" />
  <sodipodi:namedview
     pagecolor="#ffffff"
     bordercolor="#666666"
     borderopacity="1"
     objecttolerance="10"
     gridtolerance="10"
     guidetolerance="10"
     inkscape:pageopacity="0"
     inkscape:pageshadow="2"
     inkscape:window-width="1920"
     inkscape:window-height="1017"
     id="namedview6"
     showgrid="false"
     fit-margin-top="0"
     fit-margin-left="0"
     fit-margin-right="0"
     fit-margin-bottom="0"
     inkscape:zoom="1.84375"
     inkscape:cx="55.24"
     inkscape:cy="62.463"
     inkscape:window-x="-8"
     inkscape:window-y="-8"
     inkscape:window-maximized="1"
     inkscape:current-layer="svg4" />
  <path
     d="M 0.5,0 3.048335,28.609015 14.48302,31.797285 25.949638,28.597355 28.5,0 Z m 22.705902,6.554455 -0.848263,9.53059 0.0025,0.0515 -0.0035,0.11836 v -0.001 l -0.60268,6.66394 -0.0664,0.59204 -7.187545,1.98798 v 2.5e-4 l -0.0056,0.005 -7.175126,-1.99914 -0.485844,-5.50952 h 3.518501 l 0.249638,2.80152 3.899421,1.05685 -10e-4,0.002 v -5e-4 l 3.913867,-1.0718 0.413613,-4.56216 h -8.181788 l -0.0702,-0.77122 -0.159921,-1.80677 -0.08389,-0.97017 h 8.80677 l 0.320348,-3.54815 H 6.045257 L 5.975057,8.353345 5.81539,6.546065 5.73125,5.575905 h 17.55854 z"
     id="path2"
     inkscape:connector-curvature="0"
     style="fill:#1572b6;stroke-width:0.25343955" />
</svg>
