<?xml version="1.0" encoding="UTF-8" standalone="no"?>
<svg
   xmlns:dc="http://purl.org/dc/elements/1.1/"
   xmlns:cc="http://creativecommons.org/ns#"
   xmlns:rdf="http://www.w3.org/1999/02/22-rdf-syntax-ns#"
   xmlns:svg="http://www.w3.org/2000/svg"
   xmlns="http://www.w3.org/2000/svg"
   xmlns:sodipodi="http://sodipodi.sourceforge.net/DTD/sodipodi-0.dtd"
   xmlns:inkscape="http://www.inkscape.org/namespaces/inkscape"
   aria-label="Django Project"
   viewBox="0 0 28 28"
   version="1.1"
   id="svg6"
   sodipodi:docname="django.svg"
   inkscape:version="0.92.4 (5da689c313, 2019-01-14)"
   width="28"
   height="28">
  <metadata
     id="metadata12">
    <rdf:RDF>
      <cc:Work
         rdf:about="">
        <dc:format>image/svg+xml</dc:format>
        <dc:type
           rdf:resource="http://purl.org/dc/dcmitype/StillImage" />
        <dc:title></dc:title>
      </cc:Work>
    </rdf:RDF>
  </metadata>
  <defs
     id="defs10" />
  <sodipodi:namedview
     pagecolor="#ffffff"
     bordercolor="#666666"
     borderopacity="1"
     objecttolerance="10"
     gridtolerance="10"
     guidetolerance="10"
     inkscape:pageopacity="0"
     inkscape:pageshadow="2"
     inkscape:window-width="1920"
     inkscape:window-height="1017"
     id="namedview8"
     showgrid="false"
     inkscape:zoom="5.2149125"
     inkscape:cx="50.904023"
     inkscape:cy="57.44984"
     inkscape:window-x="-8"
     inkscape:window-y="-8"
     inkscape:window-maximized="1"
     inkscape:current-layer="svg6" />
  <rect
     width="28"
     height="28"
     rx="0.82031244%"
     id="rect2"
     x="0"
     y="0"
     style="fill:#113228;stroke-width:0.0546875" />
  <path
     d="m 12.414063,5.5234375 h 3.0625 V 19.578125 c -1.585938,0.273438 -2.734375,0.4375 -3.992188,0.4375 -3.7734375,0 -5.6875,-1.695312 -5.6875,-4.921875 0,-3.117187 2.0234375,-5.085937 5.25,-5.085937 0.492188,0 0.875,0 1.367188,0.109375 z m 0,7.0546875 C 12.03125,12.46875 11.757813,12.414063 11.375,12.414063 c -1.5859375,0 -2.4609375,0.984375 -2.4609375,2.625 0,1.640625 0.8203125,2.515625 2.4062505,2.515625 0.328125,0 0.601562,0 1.09375,-0.109375 z m 7.929687,-2.40625 v 7.054688 c 0,2.460937 -0.164063,3.609374 -0.710938,4.593749 -0.492187,0.984375 -1.148437,1.585938 -2.515625,2.296875 L 14.273438,22.75 c 1.367187,-0.601563 2.023437,-1.203125 2.406249,-2.023438 0.4375,-0.874999 0.601563,-1.859374 0.601563,-4.539062 v -6.015625 z m -3.0625,-4.6484375 h 3.0625 V 8.640625 h -3.0625 z"
     id="path4"
     inkscape:connector-curvature="0"
     style="fill:#ffffff;stroke-width:0.0546875" />
</svg>
