<?xml version="1.0" encoding="UTF-8" standalone="no"?>
<svg
   xmlns:dc="http://purl.org/dc/elements/1.1/"
   xmlns:cc="http://creativecommons.org/ns#"
   xmlns:rdf="http://www.w3.org/1999/02/22-rdf-syntax-ns#"
   xmlns:svg="http://www.w3.org/2000/svg"
   xmlns="http://www.w3.org/2000/svg"
   xmlns:sodipodi="http://sodipodi.sourceforge.net/DTD/sodipodi-0.dtd"
   xmlns:inkscape="http://www.inkscape.org/namespaces/inkscape"
   viewBox="0 0 512 512"
   version="1.1"
   id="svg4"
   sodipodi:docname="github.svg"
   width="512"
   height="512"
   inkscape:version="0.92.4 (5da689c313, 2019-01-14)">
  <metadata
     id="metadata10">
    <rdf:RDF>
      <cc:Work
         rdf:about="">
        <dc:format>image/svg+xml</dc:format>
        <dc:type
           rdf:resource="http://purl.org/dc/dcmitype/StillImage" />
        <dc:title></dc:title>
      </cc:Work>
    </rdf:RDF>
  </metadata>
  <defs
     id="defs8" />
  <sodipodi:namedview
     pagecolor="#ffffff"
     bordercolor="#666666"
     borderopacity="1"
     objecttolerance="10"
     gridtolerance="10"
     guidetolerance="10"
     inkscape:pageopacity="0"
     inkscape:pageshadow="2"
     inkscape:window-width="1920"
     inkscape:window-height="1017"
     id="namedview6"
     showgrid="false"
     fit-margin-top="0"
     fit-margin-left="0"
     fit-margin-right="0"
     fit-margin-bottom="0"
     inkscape:zoom="0.4609375"
     inkscape:cx="224"
     inkscape:cy="224"
     inkscape:window-x="-8"
     inkscape:window-y="-8"
     inkscape:window-maximized="1"
     inkscape:current-layer="svg4" />
  <!--! Font Awesome Pro 6.2.1 by @fontawesome - https://fontawesome.com License - https://fontawesome.com/license (Commercial License) Copyright 2022 Fonticons, Inc. -->
  <path
     d="M 457.14286,0 H 54.857143 C 24.571429,0 0,24.571429 0,54.857143 V 457.14286 C 0,487.42857 24.571429,512 54.857143,512 H 457.14286 C 487.42857,512 512,487.42857 512,457.14286 V 54.857143 C 512,24.571429 487.42857,0 457.14286,0 Z M 316.91429,438.51429 c -9.6,1.71428 -13.14286,-4.22858 -13.14286,-9.14286 0,-6.17143 0.22857,-37.71429 0.22857,-63.2 0,-17.82857 -5.94286,-29.14286 -12.91429,-35.08572 42.28572,-4.68571 86.85715,-10.51428 86.85715,-83.54285 0,-20.8 -7.42857,-31.2 -19.54286,-44.57143 1.94286,-4.91429 8.45714,-25.14286 -1.94286,-51.42857 C 340.57143,146.62857 304.22857,172 304.22857,172 289.14286,167.77143 272.8,165.6 256.68571,165.6 c -16.11428,0 -32.45714,2.17143 -47.54285,6.4 0,0 -36.34286,-25.37143 -52.22857,-20.45714 -10.4,26.17143 -4,46.4 -1.94286,51.42857 -12.11429,13.37143 -17.82857,23.77143 -17.82857,44.57143 0,72.68571 42.62857,78.85714 84.91428,83.54285 -5.48571,4.91429 -10.4,13.37143 -12.11428,25.48572 -10.85715,4.91428 -38.62857,13.37143 -55.2,-15.88572 C 144.34286,322.62857 125.6,321.14286 125.6,321.14286 107.08571,320.91429 124.34286,332.8 124.34286,332.8 c 12.34285,5.71429 21.02857,27.65714 21.02857,27.65714 11.08571,33.94286 64.11428,22.51429 64.11428,22.51429 0,15.88571 0.22858,41.71428 0.22858,46.4 0,4.91428 -3.42858,10.85714 -13.14286,9.14286 C 121.14286,413.25714 68.342857,341.48571 68.342857,257.6 c 0,-104.91429 80.228573,-184.571429 185.142853,-184.571429 104.91429,0 189.94286,79.657139 189.94286,184.571429 0.11429,83.88571 -51.08571,155.77143 -126.51428,180.91429 z M 204.8,368.68571 c -2.17143,0.45715 -4.22857,-0.45714 -4.45714,-1.94285 -0.22857,-1.71429 1.25714,-3.2 3.42857,-3.65715 2.17143,-0.22857 4.22857,0.68572 4.45714,2.17143 0.34286,1.48572 -1.14286,2.97143 -3.42857,3.42857 z m -10.85714,-1.02857 c 0,1.48572 -1.71429,2.74286 -4,2.74286 -2.51429,0.22857 -4.22857,-1.02857 -4.22857,-2.74286 0,-1.48571 1.71428,-2.74285 4,-2.74285 2.17142,-0.22858 4.22857,1.02857 4.22857,2.74285 z M 178.28571,366.4 c -0.45714,1.48571 -2.74285,2.17143 -4.68571,1.48571 -2.17143,-0.45714 -3.65714,-2.17142 -3.2,-3.65714 0.45714,-1.48571 2.74286,-2.17143 4.68571,-1.71428 2.28572,0.68571 3.77143,2.4 3.2,3.88571 z m -14.05714,-6.17143 c -1.02857,1.25714 -3.2,1.02857 -4.91428,-0.68571 -1.71429,-1.48572 -2.17143,-3.65715 -1.02858,-4.68572 1.02858,-1.25714 3.2,-1.02857 4.91429,0.68572 1.48571,1.48571 2.05714,3.77143 1.02857,4.68571 z m -10.4,-10.4 c -1.02857,0.68572 -2.97143,0 -4.22857,-1.71428 -1.25714,-1.71429 -1.25714,-3.65715 0,-4.45715 1.25714,-1.02857 3.2,-0.22857 4.22857,1.48572 1.25714,1.71428 1.25714,3.77143 0,4.68571 z M 146.4,338.74286 c -1.02857,1.02857 -2.74286,0.45714 -4,-0.68572 -1.25714,-1.48571 -1.48571,-3.2 -0.45714,-4 1.02857,-1.02857 2.74285,-0.45714 4,0.68572 1.25714,1.48571 1.48571,3.2 0.45714,4 z m -7.65714,-8.45715 c -0.45715,1.02858 -1.94286,1.25715 -3.2,0.45715 -1.48572,-0.68572 -2.17143,-1.94286 -1.71429,-2.97143 0.45714,-0.68572 1.71429,-1.02857 3.2,-0.45714 1.48572,0.8 2.17143,2.05714 1.71429,2.97142 z"
     id="path2"
     inkscape:connector-curvature="0"
     style="stroke-width:1.14285707;fill:#ffffff;fill-opacity:1" />
</svg>
