<?xml version="1.0" encoding="UTF-8" standalone="no"?>
<svg
   xmlns:dc="http://purl.org/dc/elements/1.1/"
   xmlns:cc="http://creativecommons.org/ns#"
   xmlns:rdf="http://www.w3.org/1999/02/22-rdf-syntax-ns#"
   xmlns:svg="http://www.w3.org/2000/svg"
   xmlns="http://www.w3.org/2000/svg"
   xmlns:sodipodi="http://sodipodi.sourceforge.net/DTD/sodipodi-0.dtd"
   xmlns:inkscape="http://www.inkscape.org/namespaces/inkscape"
   viewBox="0 0 512 512"
   version="1.1"
   id="svg4"
   sodipodi:docname="linkedin.svg"
   inkscape:version="0.92.4 (5da689c313, 2019-01-14)"
   width="512"
   height="512">
  <metadata
     id="metadata10">
    <rdf:RDF>
      <cc:Work
         rdf:about="">
        <dc:format>image/svg+xml</dc:format>
        <dc:type
           rdf:resource="http://purl.org/dc/dcmitype/StillImage" />
        <dc:title />
      </cc:Work>
    </rdf:RDF>
  </metadata>
  <defs
     id="defs8" />
  <sodipodi:namedview
     pagecolor="#ffffff"
     bordercolor="#666666"
     borderopacity="1"
     objecttolerance="10"
     gridtolerance="10"
     guidetolerance="10"
     inkscape:pageopacity="0"
     inkscape:pageshadow="2"
     inkscape:window-width="1920"
     inkscape:window-height="1017"
     id="namedview6"
     showgrid="false"
     inkscape:zoom="0.4609375"
     inkscape:cx="-495.77118"
     inkscape:cy="224.50001"
     inkscape:window-x="-8"
     inkscape:window-y="-8"
     inkscape:window-maximized="1"
     inkscape:current-layer="svg4"
     fit-margin-top="0"
     fit-margin-left="0"
     fit-margin-right="0"
     fit-margin-bottom="0" />
  <!--! Font Awesome Pro 6.2.1 by @fontawesome - https://fontawesome.com License - https://fontawesome.com/license (Commercial License) Copyright 2022 Fonticons, Inc. -->
  <path
     d="M 474.93986,0.57015592 H 36.946103 C 16.876615,0.57015592 0.57015592,17.104677 0.57015592,37.402228 V 474.59778 c 0,20.29754 16.30645908,36.83207 36.37594708,36.83207 H 474.93986 c 20.0695,0 36.48999,-16.53453 36.48999,-36.83207 V 37.402228 c 0,-20.297551 -16.42049,-36.83207208 -36.48999,-36.83207208 z M 154.96837,438.44989 H 79.25167 V 194.65123 H 155.0824 V 438.44989 Z M 117.11002,161.35412 c -24.288639,0 -43.902002,-19.72739 -43.902002,-43.90201 0,-24.174607 19.613363,-43.901998 43.902002,-43.901998 24.17461,0 43.902,19.727391 43.902,43.901998 0,24.28866 -19.61335,43.90201 -43.902,43.90201 z m 321.68196,277.09577 h -75.7167 V 319.85746 c 0,-28.27974 -0.57016,-64.65567 -39.34076,-64.65567 -39.45479,0 -45.49844,30.78842 -45.49844,62.60311 v 120.64499 h -75.7167 V 194.65123 h 72.63786 v 33.29711 h 1.02628 c 10.14878,-19.15725 34.89354,-39.34077 71.72561,-39.34077 76.62895,0 90.88285,50.51582 90.88285,116.19778 z"
     id="path2"
     style="fill:#ffffff;fill-opacity:1;stroke:#ffaf00;stroke-width:1.14031184;stroke-opacity:1"
     inkscape:connector-curvature="0" />
</svg>
