<?xml version="1.0" encoding="UTF-8" standalone="no"?>
<svg
   xmlns:dc="http://purl.org/dc/elements/1.1/"
   xmlns:cc="http://creativecommons.org/ns#"
   xmlns:rdf="http://www.w3.org/1999/02/22-rdf-syntax-ns#"
   xmlns:svg="http://www.w3.org/2000/svg"
   xmlns="http://www.w3.org/2000/svg"
   xmlns:sodipodi="http://sodipodi.sourceforge.net/DTD/sodipodi-0.dtd"
   xmlns:inkscape="http://www.inkscape.org/namespaces/inkscape"
   viewBox="0 0 38.509148 20"
   version="1.1"
   id="svg8"
   sodipodi:docname="mysql.svg"
   width="38.509148"
   height="20"
   inkscape:version="0.92.4 (5da689c313, 2019-01-14)">
  <metadata
     id="metadata14">
    <rdf:RDF>
      <cc:Work
         rdf:about="">
        <dc:format>image/svg+xml</dc:format>
        <dc:type
           rdf:resource="http://purl.org/dc/dcmitype/StillImage" />
        <dc:title></dc:title>
      </cc:Work>
    </rdf:RDF>
  </metadata>
  <defs
     id="defs12" />
  <sodipodi:namedview
     pagecolor="#ffffff"
     bordercolor="#666666"
     borderopacity="1"
     objecttolerance="10"
     gridtolerance="10"
     guidetolerance="10"
     inkscape:pageopacity="0"
     inkscape:pageshadow="2"
     inkscape:window-width="1920"
     inkscape:window-height="1017"
     id="namedview10"
     showgrid="false"
     inkscape:zoom="1.84375"
     inkscape:cx="64"
     inkscape:cy="64"
     inkscape:window-x="-8"
     inkscape:window-y="-8"
     inkscape:window-maximized="1"
     inkscape:current-layer="svg8"
     fit-margin-top="0"
     fit-margin-left="0"
     fit-margin-right="0"
     fit-margin-bottom="0" />
  <path
     d="M 3.1054878e-4,18.217075 H 1.2760918 v -5.038218 l 1.9751625,4.392251 c 0.2329201,0.531679 0.5518655,0.719569 1.1776442,0.719569 0.6257787,0 0.9326122,-0.18789 1.1655323,-0.719569 l 1.9751628,-4.392251 v 5.038218 h 1.2757806 v -5.029833 c 0,-0.490685 -0.1962734,-0.728264 -0.6012441,-0.850625 -0.969258,-0.302485 -1.6195713,-0.04068 -1.9139823,0.613666 l -1.938206,4.3348 -1.876715,-4.33511 C 2.2329277,12.295933 1.5705028,12.034132 0.60124446,12.336307 0.19627398,12.458978 0,12.696246 0,13.186931 v 5.030144 z M 9.9065592,14.115817 H 11.18203 v 2.775786 c -0.01182,0.150622 0.04845,0.50466 0.747207,0.515841 0.356522,0.0057 2.752184,0 2.774544,0 v -3.305292 h 1.278577 c 0.0059,0 -0.0012,4.50747 -0.0012,4.526104 C 15.988,19.740061 14.601944,19.981367 13.962812,20 H 9.9342258 v -0.858388 c 0.00683,0 4.0257922,9.16e-4 4.0357302,-3.1e-4 0.821431,-0.08665 0.724225,-0.494722 0.723916,-0.631991 v -0.334784 h -2.711501 c -1.261496,-0.01155 -2.065226,-0.562114 -2.0754752,-1.195656 -6.208e-4,-0.05808 0.027642,-2.835104 -3.1e-4,-2.863054 z"
     id="path2"
     inkscape:connector-curvature="0"
     style="fill:#00618a;stroke-width:0.31056017" />
  <path
     d="m 16.965902,18.217075 h 3.668336 c 0.429505,0 0.846898,-0.08976 1.177955,-0.245033 0.551865,-0.253418 0.821743,-0.596898 0.821743,-1.04721 v -0.9323 c 0,-0.368015 -0.306523,-0.711805 -0.907768,-0.940376 -0.318945,-0.122981 -0.711803,-0.187889 -1.09224,-0.187889 h -1.545969 c -0.515219,0 -0.760562,-0.155281 -0.821742,-0.49876 -0.0121,-0.041 -0.0121,-0.07361 -0.0121,-0.114592 v -0.580747 c 0,-0.03261 0,-0.06553 0.0121,-0.106216 0.06117,-0.261802 0.196275,-0.335405 0.650314,-0.376399 l 0.122665,-0.0081 h 3.643802 V 12.32914 h -3.582311 c -0.51522,0 -0.785095,0.03261 -1.030439,0.106216 -0.760561,0.237269 -1.09224,0.613356 -1.09224,1.267706 v 0.744103 c 0,0.572674 0.650624,1.063359 1.742243,1.177955 0.122982,0.0077 0.245342,0.01647 0.368014,0.01647 h 1.32516 c 0.04907,0 0.09813,0 0.135099,0.0077 0.40497,0.03261 0.576399,0.106519 0.699381,0.253416 0.07361,0.07361 0.09783,0.147515 0.09783,0.228883 v 0.744413 c 0,0.08975 -0.06118,0.204348 -0.183851,0.302486 -0.110246,0.09813 -0.294412,0.163665 -0.539754,0.180125 l -0.135098,0.0081 h -3.521131 z m 13.627691,-1.480132 c 0,0.874849 0.650312,1.365534 1.96274,1.463982 0.122665,0.0081 0.245342,0.01615 0.368013,0.01615 h 3.324857 v -0.850313 h -3.34908 c -0.74845,0 -1.030439,-0.1882 -1.030439,-0.638201 V 12.32854 h -1.275781 v 4.408401 z m -7.14537,0.04411 v -3.03262 c 0,-0.770189 0.540996,-1.237581 1.610567,-1.385098 0.110562,-0.01647 0.23385,-0.02453 0.344099,-0.02453 h 2.422059 c 0.122982,0 0.233541,0.0081 0.356213,0.02453 1.06957,0.147517 1.610876,0.614598 1.610876,1.385098 v 3.03262 c 0,0.625468 -0.229816,0.959631 -0.759321,1.177644 l 1.257148,1.134476 h -1.481682 l -1.016774,-0.918015 -1.023605,0.0649 h -1.364914 c -0.233541,0 -0.479194,-0.03261 -0.749691,-0.106519 -0.811495,-0.221117 -1.204975,-0.647517 -1.204975,-1.352488 z m 1.377025,-0.07361 c 0,0.041 0.0121,0.0823 0.02453,0.131372 0.07361,0.352485 0.405901,0.54907 0.90963,0.54907 h 1.159011 l -1.064602,-0.96119 h 1.481682 l 0.928264,0.838512 c 0.17143,-0.09161 0.283852,-0.230745 0.323293,-0.40994 0.0121,-0.041 0.0121,-0.08198 0.0121,-0.122981 v -2.909328 c 0,-0.03261 0,-0.07391 -0.0121,-0.114909 -0.07391,-0.32795 -0.405902,-0.516151 -0.897518,-0.516151 h -1.930443 c -0.565219,0 -0.934165,0.245964 -0.934165,0.631059 v 2.884484 z"
     id="path4"
     inkscape:connector-curvature="0"
     style="fill:#e48e00;stroke-width:0.31056017" />
  <path
     d="m 37.371568,10.917046 c -0.784165,-0.02143 -1.383235,0.05156 -1.89566,0.267392 -0.145651,0.06149 -0.37764,0.06304 -0.401244,0.245344 0.07981,0.08415 0.09223,0.209318 0.155902,0.312423 0.122362,0.197827 0.328883,0.463045 0.513045,0.601865 0.200932,0.151865 0.408387,0.314598 0.624537,0.446276 0.383542,0.234161 0.812114,0.367702 1.181992,0.601865 0.217703,0.13851 0.433852,0.312424 0.646587,0.468636 0.105281,0.07672 0.175466,0.196895 0.312422,0.245032 v -0.02205 c -0.07173,-0.09131 -0.09037,-0.216771 -0.156211,-0.312423 l -0.290062,-0.290064 c -0.283542,-0.376399 -0.643171,-0.706524 -1.026092,-0.98106 -0.304971,-0.218945 -0.987581,-0.514908 -1.114911,-0.869878 l -0.02237,-0.02204 c 0.216151,-0.02453 0.469567,-0.102792 0.668947,-0.156213 0.335405,-0.09006 0.635095,-0.06677 0.98137,-0.156211 l 0.468329,-0.134163 v -0.08882 C 37.843306,10.893452 37.71815,10.655563 37.527467,10.49314 37.028396,10.067984 36.483053,9.643137 35.921869,9.288478 35.610688,9.092203 35.225905,8.964563 34.89578,8.798103 34.785218,8.741894 34.590188,8.713012 34.516586,8.619532 34.342983,8.398722 34.248882,8.118907 34.115032,7.861453 33.835527,7.322632 33.560371,6.73381 33.312233,6.166416 33.143289,5.779769 33.032729,5.3984 32.821858,5.051506 31.809122,3.386592 30.719055,2.38162 29.03054,1.3940388 28.671223,1.1837887 28.238613,1.1011795 27.781778,0.99279369 L 27.04575,0.94807229 c -0.14938,-0.0624286 -0.30528,-0.2456529 -0.445965,-0.3344744 -0.559628,-0.3534164 -1.994416,-1.122053 -2.408704,-0.1111814 -0.261492,0.63789011 0.391307,1.26025311 0.624537,1.58354551 0.163665,0.226709 0.373603,0.480749 0.490685,0.735718 0.07702,0.167703 0.09006,0.335716 0.156211,0.513045 0.161803,0.436648 0.303107,0.912115 0.512735,1.315533 0.105901,0.204349 0.222983,0.419566 0.356834,0.602177 0.08198,0.1118 0.222982,0.161491 0.245031,0.334472 -0.137577,0.192548 -0.145652,0.491927 -0.222981,0.735718 -0.348449,1.099072 -0.217081,2.465227 0.290063,3.278584 0.155591,0.25 0.522052,0.785406 1.025781,0.579816 0.440685,-0.179504 0.342547,-0.735718 0.468634,-1.226713 0.02858,-0.110865 0.01087,-0.192859 0.06677,-0.267394 v 0.02237 l 0.401554,0.8028 c 0.297207,0.478572 0.824226,0.978263 1.271123,1.315842 0.231677,0.174846 0.414287,0.477642 0.713668,0.579817 v -0.02267 h -0.02205 C 30.511296,11.294697 30.42092,11.257427 30.346385,11.184448 30.171851,11.01333 29.977751,10.800907 29.833651,10.604632 29.427128,10.053078 29.068121,9.449039 28.740791,8.820465 28.584578,8.520463 28.448863,8.189406 28.317186,7.883815 28.266266,7.766115 28.266876,7.587852 28.161284,7.527292 28.016564,7.750896 27.804452,7.931952 27.69265,8.196238 27.514388,8.6186 27.491407,9.133819 27.425258,9.667984 l -0.04472,0.02205 C 27.069663,9.615184 26.960658,9.295308 26.845128,9.021083 26.553202,8.327602 26.498854,7.210518 26.755998,6.412068 26.822458,6.205234 27.122769,5.554612 27.001031,5.363617 26.942951,5.173242 26.75134,5.063305 26.644508,4.917341 26.511898,4.737527 26.379288,4.500881 26.287673,4.292805 26.048538,3.75212 25.937047,3.144976 25.685803,2.598078 25.565311,2.336588 25.362199,2.0723 25.195119,1.8400011 25.010335,1.582236 24.803192,1.3927938 24.659713,1.0816131 c -0.05093,-0.11056301 -0.12019,-0.28788941 -0.04473,-0.40155451 0.02392,-0.076703 0.05838,-0.1086921 0.134163,-0.1338471 0.129198,-0.099684 0.489443,0.033228 0.624225,0.089135 0.357766,0.1487579 0.656214,0.2900636 0.959321,0.49068511 0.145343,0.096589 0.292237,0.28292 0.468325,0.3344736 h 0.200632 c 0.313977,0.072053 0.665841,0.02205 0.95901,0.1111815 0.518636,0.1577658 0.983233,0.4027965 1.404975,0.6692583 1.285408,0.811804 2.336033,1.967087 3.055291,3.345352 0.115527,0.222051 0.165838,0.433543 0.267392,0.668947 0.205591,0.474538 0.464598,0.963048 0.668947,1.427334 0.204038,0.463045 0.403107,0.930439 0.691617,1.315845 0.151553,0.202485 0.737269,0.311181 1.00342,0.423603 0.186646,0.07889 0.492237,0.161181 0.668946,0.267393 0.33758,0.203728 0.66491,0.446275 0.98137,0.669257 0.158076,0.112419 0.644723,0.356834 0.668947,0.558386 z m -9.96867,-8.496615 c -0.163355,-0.0031 -0.279195,0.01801 -0.401555,0.04473 v 0.02205 h 0.02237 c 0.07795,0.16056 0.215529,0.263665 0.312112,0.401554 l 0.223293,0.468325 0.02205,-0.02205 C 27.719364,3.23783 27.782407,3.082245 27.781787,2.844356 27.726197,2.785976 27.718117,2.712985 27.670289,2.643734 27.606939,2.550564 27.483333,2.498392 27.402898,2.420442 Z"
     id="path6"
     inkscape:connector-curvature="0"
     style="fill:#00618a;stroke-width:0.31056017" />
</svg>
