<?xml version="1.0" encoding="UTF-8" standalone="no"?>
<svg
   xmlns:dc="http://purl.org/dc/elements/1.1/"
   xmlns:cc="http://creativecommons.org/ns#"
   xmlns:rdf="http://www.w3.org/1999/02/22-rdf-syntax-ns#"
   xmlns:svg="http://www.w3.org/2000/svg"
   xmlns="http://www.w3.org/2000/svg"
   xmlns:sodipodi="http://sodipodi.sourceforge.net/DTD/sodipodi-0.dtd"
   xmlns:inkscape="http://www.inkscape.org/namespaces/inkscape"
   viewBox="0 0 32 32"
   version="1.1"
   id="svg6"
   sodipodi:docname="sass.svg"
   width="32"
   height="32"
   inkscape:version="0.92.4 (5da689c313, 2019-01-14)">
  <metadata
     id="metadata12">
    <rdf:RDF>
      <cc:Work
         rdf:about="">
        <dc:format>image/svg+xml</dc:format>
        <dc:type
           rdf:resource="http://purl.org/dc/dcmitype/StillImage" />
        <dc:title></dc:title>
      </cc:Work>
    </rdf:RDF>
  </metadata>
  <defs
     id="defs10" />
  <sodipodi:namedview
     pagecolor="#ffffff"
     bordercolor="#666666"
     borderopacity="1"
     objecttolerance="10"
     gridtolerance="10"
     guidetolerance="10"
     inkscape:pageopacity="0"
     inkscape:pageshadow="2"
     inkscape:window-width="1920"
     inkscape:window-height="1017"
     id="namedview8"
     showgrid="false"
     fit-margin-top="0"
     fit-margin-left="0"
     fit-margin-right="0"
     fit-margin-bottom="0"
     inkscape:zoom="9.8333333"
     inkscape:cx="12"
     inkscape:cy="12"
     inkscape:window-x="-8"
     inkscape:window-y="-8"
     inkscape:window-maximized="1"
     inkscape:current-layer="svg6" />
  <path
     d="M 16,32 C 24.836,32 32,24.836 32,16 32,7.164 24.836,0 16,0 7.164,0 0,7.164 0,16 0,24.836 7.164,32 16,32 Z M 8.548,9.012 c 2.065333,-1.932 4.938666,-3.4133334 7.590666,-4.356 4.46,-1.5853334 9.173334,-0.6506666 9.896,2.1933334 L 25.937334,6.76 c 0.7,2.8 -1.72,6.141334 -4.818668,7.34 -2.76,1.078666 -5.061332,0.9 -6,0.6 -1.081332,-0.36 -1.701332,-1.06 -1.861332,-1.46 -0.06,-0.16 -0.16,-0.42 0,-0.5 0.1,-0.06134 0.14,-0.04134 0.418666,0.258666 0.261334,0.281334 1.281334,1.04 3.241334,0.82 C 22.057334,13.24 25.136,9.2586666 24.158666,7.12 c -0.68,-1.5 -4.621332,-2.1813334 -9.561332,0.28 -6.0200006,3 -6.3600006,5.478666 -6.4000006,6.418666 -0.14,2.58 3.1999996,3.94 5.0000006,5.88 0.05866,0.04 0.1,0.08 0.14,0.14 0.538666,-0.22 1.3,-0.32 2.5,-0.341332 2.918666,-0.03866 4.56,1.88 4.5,3.6 -0.06,1.361332 -1.301334,1.921332 -1.521334,1.961332 -0.158666,0.02 -0.26,0.02 -0.28,-0.1 -0.01866,-0.08134 0.04134,-0.12 0.241334,-0.241332 0.201332,-0.12 0.778666,-0.54 0.898666,-1.258668 0.121334,-0.72 -0.438666,-2.48 -3.24,-2.8 -1,-0.121332 -1.778666,-0.04134 -2.44,0.138668 0.482666,1.06 0.581334,3.22 -0.538666,4.901332 -1.16,1.718668 -3.320001,2.78 -5.4200006,2.198668 -0.68,-0.178668 -1.72,-1.58 -0.82,-3.54 0.84,-1.861334 4.4253326,-3.66 4.9146666,-3.9 v -0.008 C 10.470667,19.018666 6.4306666,17.090666 5.8613334,14.142666 5.7,13.306666 6.0906666,11.306667 8.548,9.012 Z"
     id="path2"
     inkscape:connector-curvature="0"
     style="fill:#c76495;stroke-width:1.33333325" />
  <path
     d="M 9.0706666,26.348 C 9.628,26.670666 10.926667,26.28666 11.857334,25.274666 c 0.305332,-0.333332 0.553332,-0.693332 0.74,-1.08 0.03466,-0.07466 0.072,-0.153332 0.104,-0.234666 l 0.08666,-0.24 c 0.24,-0.725334 0.265333,-1.529334 0.032,-2.389334 l -0.144,0.08134 v 0.004 c 0,0 -1.665334,0.788 -2.8266671,2.012 -1.08,1.14 -1.3786667,2.570667 -0.7786667,2.92 z"
     id="path4"
     inkscape:connector-curvature="0"
     style="fill:#c76495;stroke-width:1.33333325" />
</svg>
