<?xml version="1.0" encoding="UTF-8" standalone="no"?>
<svg
   xmlns:dc="http://purl.org/dc/elements/1.1/"
   xmlns:cc="http://creativecommons.org/ns#"
   xmlns:rdf="http://www.w3.org/1999/02/22-rdf-syntax-ns#"
   xmlns:svg="http://www.w3.org/2000/svg"
   xmlns="http://www.w3.org/2000/svg"
   xmlns:sodipodi="http://sodipodi.sourceforge.net/DTD/sodipodi-0.dtd"
   xmlns:inkscape="http://www.inkscape.org/namespaces/inkscape"
   data-name="Layer 2"
   viewBox="0 0 45 40.363354"
   version="1.1"
   id="svg8"
   sodipodi:docname="social-media-marketing.svg"
   width="45"
   height="40.363354"
   inkscape:version="0.92.4 (5da689c313, 2019-01-14)">
  <metadata
     id="metadata14">
    <rdf:RDF>
      <cc:Work
         rdf:about="">
        <dc:format>image/svg+xml</dc:format>
        <dc:type
           rdf:resource="http://purl.org/dc/dcmitype/StillImage" />
        <dc:title />
      </cc:Work>
    </rdf:RDF>
  </metadata>
  <defs
     id="defs12" />
  <sodipodi:namedview
     pagecolor="#ffffff"
     bordercolor="#666666"
     borderopacity="1"
     objecttolerance="10"
     gridtolerance="10"
     guidetolerance="10"
     inkscape:pageopacity="0"
     inkscape:pageshadow="2"
     inkscape:window-width="1920"
     inkscape:window-height="1017"
     id="namedview10"
     showgrid="false"
     inkscape:zoom="13.350176"
     inkscape:cx="21.396237"
     inkscape:cy="18.532083"
     inkscape:window-x="-8"
     inkscape:window-y="-8"
     inkscape:window-maximized="1"
     inkscape:current-layer="svg8"
     fit-margin-top="0"
     fit-margin-left="0"
     fit-margin-right="0"
     fit-margin-bottom="0" />
  <path
     d="m 24.04037,15.906416 a 0.50188664,0.50188664 0 0 0 0.501887,0.346302 0.56211303,0.56211303 0 0 0 0.155584,0 0.50188664,0.50188664 0 0 0 0.306151,-0.657472 l -1.174415,-3.62864 a 0.50188664,0.50188664 0 1 0 -0.953584,0.306151 z m 2.554603,-0.828113 a 0.50188664,0.50188664 0 0 0 0.476792,0.346302 0.59222623,0.59222623 0 0 0 0.155585,-0.02509 0.50188664,0.50188664 0 0 0 0.321207,-0.632377 l -1.174414,-3.623626 a 0.50188664,0.50188664 0 0 0 -0.632377,-0.321207 0.50188664,0.50188664 0 0 0 -0.321208,0.627358 z M 5.370187,23.530074 a 1.5056599,1.5056599 0 1 0 -1.5056599,1.50566 1.5056599,1.5056599 0 0 0 1.5056599,-1.50566 z m -2.0075465,0 a 0.50188664,0.50188664 0 1 1 0.5018866,0.501887 0.50188664,0.50188664 0 0 1 -0.5119244,-0.501887 z m 4.4216215,1.510679 a 1.5056599,1.5056599 0 1 0 -1.50566,-1.50566 1.5056599,1.5056599 0 0 0 1.50566,1.50566 z m 0,-2.007547 a 0.50188664,0.50188664 0 1 1 -0.501887,0.501887 0.50188664,0.50188664 0 0 1 0.501887,-0.511924 z m 3.919734,2.007547 a 1.5056599,1.5056599 0 1 0 -1.50566,-1.50566 1.5056599,1.5056599 0 0 0 1.50566,1.50566 z m 0,-2.007547 a 0.50188664,0.50188664 0 1 1 -0.501886,0.501887 0.50188664,0.50188664 0 0 1 0.501886,-0.511924 z"
     id="path2"
     style="fill:#ffffff;fill-opacity:1;stroke-width:0.50188667"
     inkscape:connector-curvature="0" />
  <path
     d="M 43.242553,10.977889 A 3.1769424,3.1769424 0 0 0 41.310289,5.0004198 l -1.50566,-4.66252698 a 0.50188664,0.50188664 0 0 0 -0.316188,-0.321208 0.50188664,0.50188664 0 0 0 -0.431623,0.08532 L 27.568633,7.9966818 23.11188,9.4370958 a 3.829395,3.829395 0 0 0 -0.501887,0.210793 H 3.0715462 A 0.50188664,0.50188664 0 0 0 2.5696596,10.149775 v 8.687658 H 0.5018866 A 0.50188664,0.50188664 0 0 0 0,19.339321 v 8.647507 a 0.50188664,0.50188664 0 0 0 0.5018866,0.501886 h 2.067773 v 6.414111 H 1.9975088 a 2.0828295,2.0828295 0 0 0 -1.7114334,0.792981 1.3651317,1.3651317 0 0 0 -0.2007547,1.249698 l 0.4215848,1.269773 c 0.4065282,1.264755 1.9121881,2.148075 3.568414,2.148075 H 37.731837 c 1.681321,0 3.14683,-0.88332 3.568414,-2.148075 l 0.421585,-1.269773 A 1.3500751,1.3500751 0 0 0 41.521081,35.695806 2.0828295,2.0828295 0 0 0 39.809648,34.902825 H 39.237497 V 16.418341 l 5.04898,-0.105397 a 0.50188664,0.50188664 0 0 0 0.401509,-0.210792 0.50188664,0.50188664 0 0 0 0.06524,-0.446679 z M 43.87493,7.4646828 A 2.1832069,2.1832069 0 0 1 42.936402,10.004229 L 41.621459,5.9891358 a 2.1731691,2.1731691 0 0 1 2.253471,1.485585 z M 21.490786,12.714417 a 2.8206029,2.8206029 0 0 1 1.445433,-2.12298 2.5395464,2.5395464 0 0 1 0.461736,-0.195736 l 4.055244,-1.3149432 2.112943,6.5245262 0.06023,0.180679 -4.060263,1.309925 A 2.7904897,2.7904897 0 0 1 22.052903,15.31419 l -0.451698,-1.41532 a 2.6599992,2.6599992 0 0 1 -0.110415,-0.798 3.267282,3.267282 0 0 1 0,-0.386453 z m 8.532073,4.015093 2.358867,4.577206 -1.585962,0.501887 -2.353848,-4.577206 z m -8.356413,-0.06525 0.06023,0.07528 a 4.1606402,4.1606402 0 0 0 0.31117,0.35634 l 0.05521,0.06023 a 3.5483385,3.5483385 0 0 0 0.391471,0.326226 l 0.09536,0.06525 a 3.2723009,3.2723009 0 0 0 0.436641,0.265999 h 0.04015 a 3.8143384,3.8143384 0 0 0 0.446679,0.185698 l 0.110415,0.03513 a 4.055244,4.055244 0 0 0 0.501887,0.120452 h 0.105396 c 0.155585,0 0.31117,0.03011 0.471774,0.03513 h 0.07026 a 4.3011685,4.3011685 0 0 0 0.501886,-0.03513 h 0.120453 a 3.9398101,3.9398101 0 0 0 0.501887,-0.125471 l 1.570905,-0.501887 2.629886,5.104187 a 0.50188664,0.50188664 0 0 0 0.446679,0.271019 0.50188664,0.50188664 0 0 0 0.150566,0 L 33.239954,22.0746 a 0.50188664,0.50188664 0 0 0 0.31117,-0.286075 0.50188664,0.50188664 0 0 0 0,-0.421585 l -2.449207,-4.767923 4.170678,-0.08532 V 34.902825 H 6.544602 v -6.414111 h 2.067773 l 3.23215,3.091622 a 0.66249036,0.66249036 0 0 0 0.145547,0.09536 h 0.05019 a 0.50188664,0.50188664 0 0 0 0.120453,0 h 0.03011 v 0 a 0.58720736,0.58720736 0 0 0 0.185698,-0.04015 0.50188664,0.50188664 0 0 0 0.296114,-0.501886 l -0.08532,-2.710188 h 2.047697 a 0.50188664,0.50188664 0 0 0 0.501887,-0.501887 V 19.339324 A 0.50188664,0.50188664 0 0 0 14.635014,18.837437 H 6.544602 v -5.22464 h 13.982561 v 0 a 3.6487158,3.6487158 0 0 0 0.13551,0.572151 l 0.451698,1.41532 a 4.1556213,4.1556213 0 0 0 0.215811,0.501887 l 0.05019,0.105396 a 4.3613949,4.3613949 0 0 0 0.286075,0.456717 z m 9.139356,19.247353 v 1.219589 H 11.006374 V 35.911618 Z M 3.5734329,10.641625 H 21.34022 a 0.09033959,0.09033959 0 0 0 -0.02509,0.03513 0.85822615,0.85822615 0 0 0 -0.05521,0.07026 c -0.0803,0.105396 -0.150566,0.210792 -0.22083,0.321207 l -0.05019,0.07528 a 3.7440743,3.7440743 0 0 0 -0.200755,0.401509 0.67252809,0.67252809 0 0 1 -0.03513,0.09034 3.9749422,3.9749422 0 0 0 -0.13049,0.391472 v 0.05521 a 4.3965269,4.3965269 0 0 0 -0.09034,0.446679 0.34128291,0.34128291 0 0 1 0,0.07026 H 6.042715 a 0.50188664,0.50188664 0 0 0 -0.501887,0.501887 v 5.736564 H 3.5734329 Z M 1.0037733,27.484941 V 19.841207 H 14.153203 v 7.643734 h -2.062754 a 0.50188664,0.50188664 0 0 0 -0.501887,0.501887 l 0.06525,2.007546 -2.509433,-2.383961 A 0.50188664,0.50188664 0 0 0 8.798077,27.474903 H 1.0037733 Z m 4.5169797,1.003773 v 6.414111 H 3.5734329 v -6.414111 z m 34.288895,7.417885 a 1.1292449,1.1292449 0 0 1 0.898377,0.376415 0.38143384,0.38143384 0 0 1 0.06525,0.346301 l -0.426603,1.264755 c -0.281057,0.853207 -1.380189,1.465509 -2.61483,1.465509 H 4.0753195 c -1.2346411,0 -2.3337729,-0.612302 -2.6148294,-1.465509 L 1.0389053,36.629315 a 0.36637724,0.36637724 0 0 1 0.060226,-0.346301 1.1292449,1.1292449 0 0 1 0.8983771,-0.376415 h 8.0301866 v 1.721471 a 0.50188664,0.50188664 0 0 0 0.501887,0.501886 h 20.778106 a 0.50188664,0.50188664 0 0 0 0.501887,-0.501886 v -1.716452 h 8.000073 z m -3.54332,-1.003774 V 16.483586 l 1.967396,-0.04015 v 18.45939 z M 31.247462,15.585209 h -0.622339 l -0.501887,-1.616075 -1.736528,-5.3350552 10.67011,-7.347621 1.445434,4.461773 v 0 l 0.296113,0.918452 2.775433,8.6575452 z"
     id="path4"
     style="fill:#ffaf00;fill-opacity:1;stroke-width:0.50188667"
     inkscape:connector-curvature="0" />
  <path
     d="m 16.150712,24.011885 a 0.50188664,0.50188664 0 0 0 -0.281057,0.853208 l 3.372679,3.287357 -0.792981,4.642452 a 0.50188664,0.50188664 0 0 0 0.727735,0.501886 l 4.165659,-2.188226 4.170678,2.21332 a 0.50188664,0.50188664 0 0 0 0.235887,0.06023 0.53199983,0.53199983 0 0 0 0.296113,-0.09536 0.50188664,0.50188664 0 0 0 0.195736,-0.501886 l -0.792981,-4.642454 3.372678,-3.287357 a 0.50188664,0.50188664 0 0 0 -0.281056,-0.853207 l -4.657508,-0.677547 -2.08283,-4.220867 a 0.50188664,0.50188664 0 0 0 -0.903396,0 l -2.082829,4.220867 z m 5.440451,0 1.751584,-3.548338 1.751585,3.548338 a 0.50188664,0.50188664 0 0 0 0.376415,0.271019 l 3.914716,0.572151 -2.83566,2.760376 a 0.50188664,0.50188664 0 0 0 -0.140528,0.441661 l 0.667509,3.899659 -3.513206,-1.841924 a 0.50188664,0.50188664 0 0 0 -0.230868,-0.05521 0.56211303,0.56211303 0 0 0 -0.235887,0.05521 l -3.513206,1.841924 0.667509,-3.899659 a 0.50188664,0.50188664 0 0 0 -0.145547,-0.441661 l -2.830641,-2.760376 3.914716,-0.572151 a 0.50188664,0.50188664 0 0 0 0.401509,-0.266 z"
     id="path6"
     style="fill:#ffaf00;fill-opacity:1;stroke-width:0.50188667"
     inkscape:connector-curvature="0" />
</svg>
